<svg width="48" height="56" viewBox="0 0 48 56" fill="none" xmlns="http://www.w3.org/2000/svg">
<g clip-path="url(#clip0)">
<path d="M47.84 40.1001V40.1001C47.1797 33.2649 43.6231 27.0399 38.07 23.0001V21.8001V21.8003C38.0383 12.5286 32.7034 4.09288 24.3401 0.0901785V0.0901785C24.0765 -0.0300595 23.7737 -0.0300595 23.5101 0.0901784L23.5101 0.0901794C15.1436 4.09431 9.80794 12.5348 9.78004 21.8101V23.0001H9.78004C4.22318 27.0379 0.662758 33.2632 3.78662e-05 40.1001H3.78483e-05C-0.0203923 40.3704 0.0698327 40.6375 0.250038 40.8401H0.250038C0.436132 41.0408 0.696359 41.1564 0.970038 41.1601H9.97004L10.7 43.7001C11.4221 46.1845 13.6928 47.8977 16.28 47.9101H17.83V47.9101C19.0715 50.8671 20.9099 53.536 23.23 55.7501C23.4097 55.9086 23.6404 55.9973 23.88 56.0001C24.1209 56.0041 24.3539 55.9145 24.53 55.7501L24.53 55.7501C26.8787 53.5456 28.7418 50.8754 30 47.9101H31.56C34.1346 47.8867 36.3879 46.1743 37.1 43.7001L37.83 41.1601H47C47.2298 41.1437 47.4445 41.04 47.6 40.8701C47.7943 40.664 47.8828 40.38 47.84 40.1001L47.84 40.1001ZM9.78003 25.4601V39.2301H2.05003C2.83839 33.8432 5.59177 28.9384 9.78003 25.4601V25.4601ZM23.92 53.6901V53.6901C22.3089 51.9885 20.985 50.0364 20 47.9101H27.82H27.82C26.8448 50.037 25.5273 51.9896 23.92 53.6901ZM35.25 43.1701C34.7724 44.8324 33.2595 45.9833 31.53 46.0001H16.32C14.5939 45.9925 13.0792 44.8484 12.6 43.1901L11.71 40.0701V21.8101V21.8098C11.7182 13.4321 16.4398 5.77192 23.9203 2.00002L23.9203 2.00002C31.4062 5.76758 36.1325 13.4296 36.14 21.8101V40.0501L35.25 43.1701ZM38.07 39.2301V25.4601C42.2523 28.9419 45.0015 33.8456 45.79 39.2301H38.07Z" fill="#3097F5"/>
<path d="M23.91 36.27C27.6435 36.27 30.67 33.2435 30.67 29.51C30.67 25.7766 27.6435 22.75 23.91 22.75C20.1766 22.75 17.15 25.7766 17.15 29.51V29.51C17.15 33.2434 20.1766 36.27 23.91 36.27ZM23.91 24.68C26.5776 24.6745 28.7445 26.8325 28.75 29.5C28.7555 32.1675 26.5976 34.3345 23.93 34.34C21.2625 34.3455 19.0956 32.1875 19.09 29.52C19.09 29.5167 19.09 29.5133 19.09 29.51V29.51C19.09 26.8464 21.2464 24.6855 23.91 24.68H23.91Z" fill="#ADD8FF"/>
<path d="M23.91 18.7501C26.5775 18.7556 28.7444 16.5976 28.75 13.9301C28.7555 11.2625 26.5975 9.09562 23.93 9.0901C21.2624 9.08458 19.0955 11.2426 19.09 13.9101C19.09 13.9168 19.09 13.9234 19.09 13.9301C19.09 16.5921 21.248 18.7501 23.91 18.7501ZM23.91 11.0301C25.5116 11.0356 26.8055 12.3384 26.8 13.9401C26.7944 15.5417 25.4916 16.8356 23.89 16.83C22.2923 16.8245 21 15.5278 21 13.9301V13.9301C20.9834 12.3285 22.2683 11.0168 23.8698 11.0002C23.8832 11.0001 23.8966 11 23.91 11.0001L23.91 11.0301Z" fill="#ADD8FF"/>
<path d="M3.45999 45.0001C2.90771 45.0001 2.45999 45.4478 2.45999 46.0001V48.7001C2.31516 49.2331 2.62979 49.7825 3.16274 49.9274C3.6957 50.0722 4.24515 49.7576 4.38999 49.2246C4.43666 49.0529 4.43666 48.8718 4.38999 48.7001V46.0001V46.0001C4.39128 45.474 3.98476 45.0369 3.45998 45.0001H3.45999Z" fill="#ADD8FF"/>
<path d="M8.35998 47.6901C7.8077 47.6901 7.35999 48.1378 7.35999 48.6901V51.2901C7.49425 51.8258 8.03737 52.1512 8.57309 52.017C8.93091 51.9273 9.2103 51.6479 9.29998 51.2901V48.6901V48.6901C9.30093 48.1604 8.8887 47.7218 8.35997 47.6901H8.35998Z" fill="#ADD8FF"/>
<path d="M44.9 45.0001C44.3477 45.0001 43.9 45.4478 43.9 46.0001V48.7001C43.7552 49.2331 44.0698 49.7825 44.6027 49.9274C45.1357 50.0722 45.6852 49.7576 45.83 49.2246C45.8767 49.0529 45.8767 48.8718 45.83 48.7001V46.0001V46.0001C45.8313 45.474 45.4248 45.0369 44.9 45.0001H44.9Z" fill="#ADD8FF"/>
<path d="M40 47.6901C39.4477 47.6901 39 48.1378 39 48.6901V51.2901C38.8551 51.823 39.1698 52.3725 39.7027 52.5173C40.2357 52.6622 40.7851 52.3475 40.93 51.8146C40.9766 51.6428 40.9766 51.4618 40.93 51.2901V48.6901V48.6901C40.9313 48.164 40.5247 47.7269 40 47.6901H40Z" fill="#ADD8FF"/>
<path d="M31.64 39.2301H16.19C15.657 39.0852 15.1076 39.3999 14.9627 39.9328C14.8179 40.4658 15.1325 41.0152 15.6655 41.1601C15.8372 41.2067 16.0183 41.2067 16.19 41.1601H31.64C32.1729 41.0152 32.4876 40.4658 32.3427 39.9328C32.2497 39.5905 31.9823 39.3231 31.64 39.2301Z" fill="#ADD8FF"/>
</g>
<defs>
<clipPath id="clip0">
<rect width="47.85" height="56" fill="white"/>
</clipPath>
</defs>
</svg>
